<?xml version="1.0" standalone="no"?>
<!DOCTYPE svg PUBLIC "-//W3C//DTD SVG 20010904//EN"
 "http://www.w3.org/TR/2001/REC-SVG-20010904/DTD/svg10.dtd">
<svg version="1.0" xmlns="http://www.w3.org/2000/svg"
 width="100.000000pt" height="100.000000pt" viewBox="0 0 100.000000 100.000000"
 preserveAspectRatio="xMidYMid meet">
<metadata>
Created by potrace 1.10, written by Peter Selinger 2001-2011
</metadata>
<g transform="translate(0.000000,100.000000) scale(0.050000,-0.050000)"
fill="#2c4be8" stroke="none">
<path d="M852 1628 c-501 -160 -537 -1099 -50 -1317 226 -102 566 -81 673 40
107 121 16 320 -166 365 -44 11 -141 34 -216 51 -272 64 -394 185 -393 392 2
311 304 481 705 396 164 -34 168 -28 22 39 -145 66 -423 83 -575 34z m-103
-950 c-7 -11 14 -17 48 -14 32 2 73 -7 90 -21 16 -14 44 -23 60 -19 17 3 44
-12 60 -33 24 -33 34 -35 59 -14 20 16 35 18 43 5 7 -12 42 -20 77 -18 35 1
95 -14 132 -33 l67 -35 -60 -60 c-59 -59 -94 -67 -215 -51 -87 12 -132 36
-116 62 8 13 -1 11 -20 -4 -29 -24 -36 -22 -49 10 -8 20 -26 38 -40 39 -14 1
-44 3 -67 5 -36 3 -39 8 -18 33 22 26 20 29 -7 18 -22 -8 -33 -2 -33 20 0 18
-8 32 -18 32 -21 0 -44 80 -30 104 6 9 19 11 30 5 10 -6 13 -20 7 -31z"/>
<path d="M1048 1392 c-132 -58 -196 -243 -118 -343 28 -36 29 -35 10 17 -42
117 20 231 166 303 111 56 62 75 -58 23z"/>
</g>
</svg>
